<mxfile host="Electron" modified="2024-03-16T14:00:32.666Z" agent="Mozilla/5.0 (Windows NT 10.0; Win64; x64) AppleWebKit/537.36 (KHTML, like Gecko) draw.io/24.0.4 Chrome/120.0.6099.109 Electron/28.1.0 Safari/537.36" etag="stJflE4x6_kjwArE0gYq" version="24.0.4" type="device">
  <diagram name="Page-1" id="FQGKYs_hwpku-xk34qYB">
    <mxGraphModel dx="875" dy="518" grid="1" gridSize="10" guides="1" tooltips="1" connect="1" arrows="1" fold="1" page="1" pageScale="1" pageWidth="850" pageHeight="1100" math="0" shadow="0">
      <root>
        <mxCell id="0" />
        <mxCell id="1" parent="0" />
        <mxCell id="YQrrE9ldobGw4m-E9e90-2" value="&lt;div style=&quot;font-size: 15px;&quot;&gt;&lt;span style=&quot;background-color: initial;&quot;&gt;&lt;font style=&quot;font-size: 15px;&quot;&gt;&amp;nbsp;Webserver&lt;/font&gt;&lt;/span&gt;&lt;/div&gt;&lt;br style=&quot;font-size: 15px;&quot;&gt;&lt;br&gt;&lt;br&gt;&lt;br&gt;&lt;div&gt;&lt;br&gt;&lt;/div&gt;" style="rounded=1;whiteSpace=wrap;html=1;align=left;fillColor=none;strokeWidth=2;strokeColor=#FFFFFF;fontColor=#FFFFFF;" parent="1" vertex="1">
          <mxGeometry x="290" y="1156" width="310" height="110" as="geometry" />
        </mxCell>
        <mxCell id="YQrrE9ldobGw4m-E9e90-1" value="&lt;font style=&quot;font-size: 15px;&quot;&gt;Lean Language Server&lt;/font&gt;" style="rounded=1;whiteSpace=wrap;html=1;fillColor=none;strokeWidth=2;strokeColor=#FFFFFF;fontColor=#FFFFFF;" parent="1" vertex="1">
          <mxGeometry x="460" y="1190" width="120" height="60" as="geometry" />
        </mxCell>
        <mxCell id="YQrrE9ldobGw4m-E9e90-30" value="" style="edgeStyle=orthogonalEdgeStyle;rounded=0;orthogonalLoop=1;jettySize=auto;html=1;exitX=1;exitY=0.5;exitDx=0;exitDy=0;entryX=0;entryY=0.5;entryDx=0;entryDy=0;startArrow=block;startFill=1;strokeWidth=2;strokeColor=#FFFFFF;fontColor=#FFFFFF;" parent="1" source="YQrrE9ldobGw4m-E9e90-5" target="YQrrE9ldobGw4m-E9e90-23" edge="1">
          <mxGeometry relative="1" as="geometry" />
        </mxCell>
        <mxCell id="YQrrE9ldobGw4m-E9e90-5" value="&lt;font style=&quot;font-size: 15px;&quot;&gt;Github Repository&lt;/font&gt;" style="rounded=1;whiteSpace=wrap;html=1;fillColor=none;strokeWidth=2;strokeColor=#FFFFFF;fontColor=#FFFFFF;" parent="1" vertex="1">
          <mxGeometry x="140" y="1190" width="120" height="60" as="geometry" />
        </mxCell>
        <mxCell id="YQrrE9ldobGw4m-E9e90-15" value="&lt;div style=&quot;&quot;&gt;&lt;span style=&quot;background-color: initial;&quot;&gt;&amp;nbsp; &amp;nbsp;&lt;font style=&quot;font-size: 15px;&quot;&gt;Browser&lt;/font&gt;&lt;/span&gt;&lt;/div&gt;&lt;div&gt;&lt;br&gt;&lt;/div&gt;&lt;br&gt;&lt;br&gt;&lt;br&gt;&lt;div&gt;&lt;br&gt;&lt;/div&gt;" style="rounded=1;whiteSpace=wrap;html=1;align=left;fillColor=none;strokeWidth=2;strokeColor=#FFFFFF;fontColor=#FFFFFF;" parent="1" vertex="1">
          <mxGeometry x="350" y="970" width="190" height="110" as="geometry" />
        </mxCell>
        <mxCell id="YQrrE9ldobGw4m-E9e90-33" value="" style="edgeStyle=orthogonalEdgeStyle;shape=connector;rounded=0;orthogonalLoop=1;jettySize=auto;html=1;exitX=0.5;exitY=1;exitDx=0;exitDy=0;entryX=0.5;entryY=0;entryDx=0;entryDy=0;labelBackgroundColor=default;align=center;verticalAlign=middle;fontFamily=Helvetica;fontSize=11;fontColor=#FFFFFF;startArrow=none;startFill=0;endArrow=none;endFill=0;strokeWidth=2;strokeColor=#FFFFFF;" parent="1" source="YQrrE9ldobGw4m-E9e90-14" target="YQrrE9ldobGw4m-E9e90-2" edge="1">
          <mxGeometry relative="1" as="geometry" />
        </mxCell>
        <mxCell id="YQrrE9ldobGw4m-E9e90-14" value="&lt;font style=&quot;font-size: 15px;&quot;&gt;Monaco Editor (LSP Client)&lt;/font&gt;" style="rounded=1;whiteSpace=wrap;html=1;fillColor=none;strokeWidth=2;strokeColor=#FFFFFF;fontColor=#FFFFFF;" parent="1" vertex="1">
          <mxGeometry x="385" y="1003" width="120" height="60" as="geometry" />
        </mxCell>
        <mxCell id="YQrrE9ldobGw4m-E9e90-23" value="&lt;font style=&quot;font-size: 15px;&quot;&gt;Lokale Kopie des Repositorys&lt;/font&gt;" style="rounded=1;whiteSpace=wrap;html=1;fillColor=none;strokeWidth=2;strokeColor=#FFFFFF;fontColor=#FFFFFF;" parent="1" vertex="1">
          <mxGeometry x="310" y="1190" width="120" height="60" as="geometry" />
        </mxCell>
        <mxCell id="YQrrE9ldobGw4m-E9e90-34" value="" style="edgeStyle=orthogonalEdgeStyle;shape=connector;rounded=0;orthogonalLoop=1;jettySize=auto;html=1;exitX=0.5;exitY=0;exitDx=0;exitDy=0;labelBackgroundColor=default;align=center;verticalAlign=middle;fontFamily=Helvetica;fontSize=11;fontColor=#FFFFFF;startArrow=none;startFill=0;endArrow=classic;entryX=1;entryY=0.5;entryDx=0;entryDy=0;strokeWidth=2;strokeColor=#FFFFFF;" parent="1" source="YQrrE9ldobGw4m-E9e90-2" target="YQrrE9ldobGw4m-E9e90-23" edge="1">
          <mxGeometry relative="1" as="geometry">
            <mxPoint x="500" y="1070" as="sourcePoint" />
            <mxPoint x="500" y="1190" as="targetPoint" />
            <Array as="points">
              <mxPoint x="445" y="1220" />
            </Array>
          </mxGeometry>
        </mxCell>
        <mxCell id="YQrrE9ldobGw4m-E9e90-35" value="" style="edgeStyle=orthogonalEdgeStyle;shape=connector;rounded=0;orthogonalLoop=1;jettySize=auto;html=1;exitX=0.5;exitY=0;exitDx=0;exitDy=0;labelBackgroundColor=default;align=center;verticalAlign=middle;fontFamily=Helvetica;fontSize=11;fontColor=#FFFFFF;startArrow=none;startFill=0;endArrow=classic;entryX=1;entryY=0.5;entryDx=0;entryDy=0;strokeWidth=2;strokeColor=#FFFFFF;" parent="1" edge="1">
          <mxGeometry relative="1" as="geometry">
            <mxPoint x="445" y="1160" as="sourcePoint" />
            <mxPoint x="460" y="1220" as="targetPoint" />
            <Array as="points">
              <mxPoint x="445" y="1220" />
            </Array>
          </mxGeometry>
        </mxCell>
        <mxCell id="YQrrE9ldobGw4m-E9e90-36" value="" style="endArrow=classic;html=1;rounded=0;labelBackgroundColor=default;align=center;verticalAlign=middle;fontFamily=Helvetica;fontSize=11;fontColor=#FFFFFF;shape=connector;edgeStyle=orthogonalEdgeStyle;exitX=0.5;exitY=0;exitDx=0;exitDy=0;entryX=0.795;entryY=1.01;entryDx=0;entryDy=0;entryPerimeter=0;strokeWidth=2;strokeColor=#FFFFFF;" parent="1" source="YQrrE9ldobGw4m-E9e90-1" target="YQrrE9ldobGw4m-E9e90-14" edge="1">
          <mxGeometry width="50" height="50" relative="1" as="geometry">
            <mxPoint x="450" y="1140" as="sourcePoint" />
            <mxPoint x="500" y="1090" as="targetPoint" />
            <Array as="points">
              <mxPoint x="520" y="1120" />
              <mxPoint x="480" y="1120" />
            </Array>
          </mxGeometry>
        </mxCell>
        <mxCell id="YQrrE9ldobGw4m-E9e90-38" value="" style="endArrow=classic;html=1;rounded=0;labelBackgroundColor=default;align=center;verticalAlign=middle;fontFamily=Helvetica;fontSize=11;fontColor=#FFFFFF;shape=connector;edgeStyle=orthogonalEdgeStyle;entryX=0.202;entryY=1.01;entryDx=0;entryDy=0;entryPerimeter=0;exitX=0.5;exitY=0;exitDx=0;exitDy=0;strokeWidth=2;strokeColor=#FFFFFF;" parent="1" source="YQrrE9ldobGw4m-E9e90-23" target="YQrrE9ldobGw4m-E9e90-14" edge="1">
          <mxGeometry width="50" height="50" relative="1" as="geometry">
            <mxPoint x="450" y="1140" as="sourcePoint" />
            <mxPoint x="500" y="1090" as="targetPoint" />
            <Array as="points">
              <mxPoint x="370" y="1120" />
              <mxPoint x="409" y="1120" />
            </Array>
          </mxGeometry>
        </mxCell>
        <mxCell id="jbU-ozsvjlOgpNCrq_7b-3" value="" style="edgeStyle=orthogonalEdgeStyle;rounded=0;orthogonalLoop=1;jettySize=auto;html=1;endArrow=classic;endFill=1;startArrow=classic;startFill=1;strokeWidth=2;strokeColor=#FFFFFF;fontColor=#FFFFFF;" parent="1" source="jbU-ozsvjlOgpNCrq_7b-2" target="YQrrE9ldobGw4m-E9e90-15" edge="1">
          <mxGeometry relative="1" as="geometry" />
        </mxCell>
        <mxCell id="jbU-ozsvjlOgpNCrq_7b-2" value="&lt;font style=&quot;font-size: 15px;&quot;&gt;Github&lt;/font&gt;&lt;div&gt;&lt;font style=&quot;font-size: 15px;&quot;&gt;Authentifizierung&lt;/font&gt;&lt;/div&gt;" style="rounded=1;whiteSpace=wrap;html=1;fillColor=none;strokeWidth=2;strokeColor=#FFFFFF;fontColor=#FFFFFF;" parent="1" vertex="1">
          <mxGeometry x="140" y="995" width="120" height="60" as="geometry" />
        </mxCell>
        <mxCell id="4iWCEA0HBBKLQj_R4GC_-1" value="&lt;div style=&quot;font-size: 15px;&quot;&gt;&lt;span style=&quot;background-color: initial;&quot;&gt;&lt;font style=&quot;font-size: 15px;&quot;&gt;&amp;nbsp; Webserver&lt;/font&gt;&lt;/span&gt;&lt;/div&gt;&lt;div style=&quot;font-size: 15px;&quot;&gt;&lt;span style=&quot;background-color: initial;&quot;&gt;&lt;font style=&quot;font-size: 15px;&quot;&gt;&lt;br&gt;&lt;/font&gt;&lt;/span&gt;&lt;/div&gt;&lt;font style=&quot;font-size: 15px;&quot;&gt;&lt;div&gt;&lt;br&gt;&lt;/div&gt;&lt;br&gt;&lt;br&gt;&lt;/font&gt;" style="rounded=1;whiteSpace=wrap;html=1;align=left;fillColor=none;strokeWidth=2;strokeColor=#FFFFFF;fontColor=#FFFFFF;" vertex="1" parent="1">
          <mxGeometry x="620" y="1156" width="190" height="110" as="geometry" />
        </mxCell>
        <mxCell id="4iWCEA0HBBKLQj_R4GC_-2" value="&lt;font style=&quot;font-size: 15px;&quot;&gt;Lean Language Server&lt;/font&gt;" style="rounded=1;whiteSpace=wrap;html=1;fillColor=none;strokeWidth=2;strokeColor=#FFFFFF;fontColor=#FFFFFF;" vertex="1" parent="1">
          <mxGeometry x="655" y="1186" width="120" height="60" as="geometry" />
        </mxCell>
        <mxCell id="4iWCEA0HBBKLQj_R4GC_-3" value="&lt;div style=&quot;font-size: 15px;&quot;&gt;&lt;span style=&quot;background-color: initial;&quot;&gt;&lt;font style=&quot;font-size: 15px;&quot;&gt;&amp;nbsp; &amp;nbsp;Browser&lt;/font&gt;&lt;/span&gt;&lt;/div&gt;&lt;div style=&quot;font-size: 15px;&quot;&gt;&lt;br&gt;&lt;/div&gt;&lt;div style=&quot;font-size: 15px;&quot;&gt;&lt;br&gt;&lt;/div&gt;&lt;br&gt;&lt;br&gt;&lt;div&gt;&lt;br&gt;&lt;/div&gt;" style="rounded=1;whiteSpace=wrap;html=1;align=left;fillColor=none;strokeWidth=2;strokeColor=#FFFFFF;fontColor=#FFFFFF;" vertex="1" parent="1">
          <mxGeometry x="620" y="970" width="190" height="110" as="geometry" />
        </mxCell>
        <mxCell id="4iWCEA0HBBKLQj_R4GC_-4" value="" style="edgeStyle=orthogonalEdgeStyle;rounded=0;orthogonalLoop=1;jettySize=auto;html=1;labelBackgroundColor=none;startArrow=classic;startFill=1;strokeWidth=2;strokeColor=#FFFFFF;fontColor=#FFFFFF;" edge="1" parent="1">
          <mxGeometry relative="1" as="geometry">
            <Array as="points">
              <mxPoint x="714.83" y="1096" />
              <mxPoint x="714.83" y="1096" />
            </Array>
            <mxPoint x="714.83" y="1060" as="sourcePoint" />
            <mxPoint x="714.83" y="1186" as="targetPoint" />
          </mxGeometry>
        </mxCell>
        <mxCell id="4iWCEA0HBBKLQj_R4GC_-5" value="&lt;font style=&quot;font-size: 15px;&quot;&gt;Monaco Editor (LSP Client)&lt;/font&gt;" style="rounded=1;whiteSpace=wrap;html=1;fillColor=none;strokeWidth=2;strokeColor=#FFFFFF;fontColor=#FFFFFF;" vertex="1" parent="1">
          <mxGeometry x="655" y="1000" width="120" height="60" as="geometry" />
        </mxCell>
      </root>
    </mxGraphModel>
  </diagram>
</mxfile>
